<svg version="1.1" width="550" height="500" viewBox="0 0 550 500" xmlns="http://www.w3.org/2000/svg" xmlns:xlink="http://www.w3.org/1999/xlink" id="Layer_1" overflow="hidden"><g id="g1473" transform="matrix(2.51278,0,0,2.51278,-489.84,-236.263)"><linearGradient x1="290.888" y1="269.367" x2="290.888" y2="284.957" gradientUnits="userSpaceOnUse" id="path15_1_" gradientTransform="matrix(50.5544,0,0,-50.5544,-14401.6,13850.6)"><stop offset="0" stop-color="#5F9631"/><stop offset="0.321" stop-color="#649D30"/><stop offset="0.794" stop-color="#6FB12D"/><stop offset="0.999" stop-color="#77B833"/></linearGradient><path d=" M 326.6 206.2 C 326.6 220.8 308.7 232.5 304.8 234.9 C 304.3 235.2 303.8 235.2 303.3 234.9 C 299.4 232.5 281.5 220.8 281.5 206.2 L 281.5 188.7 C 281.5 187.9 282.1 187.3 282.9 187.3 C 296.8 186.9 293.6 180.9 304.1 180.9 C 314.6 180.9 311.3 186.9 325.3 187.3 C 326.1 187.3 326.7 187.9 326.7 188.7 L 326.6 206.2 Z" id="path13" fill="#77B833"/><path d=" M 324.8 206.4 C 324.8 219.8 308.4 230.5 304.8 232.7 C 304.4 233 303.9 233 303.4 232.7 C 299.8 230.5 283.4 219.8 283.4 206.4 L 283.4 190.3 C 283.4 189.6 284 189 284.7 189 L 284.7 189 C 297.5 188.7 294.6 183.1 304.1 183.1 C 313.6 183.1 310.7 188.6 323.5 189 C 324.2 189 324.8 189.6 324.8 190.3 L 324.8 190.3 L 324.8 206.4 Z" id="path15" fill="url(#path15_1_)"/></g><path d=" M 522.5 406.1 C 522.5 430.9 502.8 453.7 475.2 453.7 L 292.2 453.7 L 293.1 385.3 C 348.3 376.9 386.3 325.3 377.9 270.1 C 376.8 263 375 256.1 372.5 249.4 L 423.2 220.3 L 516.1 382.4 C 520.3 389.7 522.5 397.8 522.5 406.1 L 522.5 406.1 Z" id="path18" fill="#575757"/><path d=" M 408.6 194.8 L 358.3 224 C 324.4 179.6 261 171.1 216.6 205 C 209.1 210.7 202.5 217.4 196.9 225 L 146.1 197 L 240.8 31.7 C 255.1 6.7 288.8 3.6 307.9 22.3 C 310.7 25.1 313.2 28.2 315.1 31.7 L 408.6 194.8 Z" id="path20" fill="#1C3543"/><path d=" M 263.7 385.5 L 263.1 453.8 L 80.7 453.8 C 68.3 453.9 56.3 448.9 47.5 440.1 C 38.5 431.1 33.4 418.9 33.4 406.2 C 33.4 397.9 35.6 389.7 39.8 382.5 L 131.5 222.5 L 183 250.6 C 163.8 303.1 190.8 361.2 243.2 380.4 C 249.9 382.8 256.8 384.5 263.7 385.5 Z" id="path22" fill="#96B03D"/><text fill="#020203" font-family="Calibri" font-size="26" transform="matrix(0.4789,-0.8779,0.8779,0.4789,80.1401,270.281)">Co</text><text fill="#020203" font-family="Calibri" font-size="26" transform="matrix(0.4789,-0.8779,0.8779,0.4789,93.3737,246.019)">n</text><text fill="#020203" font-family="Calibri" font-size="26" transform="matrix(0.4789,-0.8779,0.8779,0.4789,99.8586,234.131)">fide</text><text fill="#020203" font-family="Calibri" font-size="26" transform="matrix(0.4789,-0.8779,0.8779,0.4789,119.231,198.614)">nt</text><text fill="#020203" font-family="Calibri" font-size="26" transform="matrix(0.4789,-0.8779,0.8779,0.4789,125.673,186.805)">iality</text><text fill="#020203" font-family="Calibri" font-size="26" transform="matrix(1,0,0,1,210.29,487.2)">A</text><text fill="#020203" font-family="Calibri" font-size="26" transform="matrix(1,0,0,1,224.85,487.2)">v</text><text fill="#020203" font-family="Calibri" font-size="26" transform="matrix(1,0,0,1,236.21,487.2)">ailability</text><text fill="#020203" font-family="Calibri" font-size="26" transform="matrix(0.5389,0.8424,-0.8424,0.5389,413.429,164.13)">I</text><text fill="#020203" font-family="Calibri" font-size="26" transform="matrix(0.5389,0.8424,-0.8424,0.5389,416.959,169.647)">n</text><text fill="#020203" font-family="Calibri" font-size="26" transform="matrix(0.5389,0.8424,-0.8424,0.5389,424.191,180.952)">t</text><text fill="#020203" font-family="Calibri" font-size="26" transform="matrix(0.5389,0.8424,-0.8424,0.5389,428.734,188.053)">egrity</text><line x1="377.1" y1="480.7" x2="468.7" y2="480.7" id="line82" stroke="#5DC1D0" stroke-width="3" stroke-miterlimit="10" fill="none"/><path d=" M 486.8 480.7 C 478.3 483.9 467.7 489.3 461.2 495 L 466.4 480.7 L 461.2 466.4 C 467.7 472.1 478.3 477.5 486.8 480.7 Z" id="path84" fill="#5DC1D0"/><line x1="171.7" y1="480.7" x2="80.1" y2="480.7" id="line86" stroke="#5DC1D0" stroke-width="3" stroke-miterlimit="10" fill="none"/><path d=" M 62 480.7 C 70.5 477.5 81.1 472.2 87.6 466.4 L 82.4 480.7 L 87.6 495 C 81.1 489.2 70.5 483.8 62 480.7 Z" id="path88" fill="#5DC1D0"/><g><line x1="169.4" y1="100" x2="215.2" y2="20.7" id="line94" stroke="#5DC1D0" stroke-width="3" stroke-miterlimit="10" fill="none"/><path d=" M 224.3 5 C 222.8 14 222.2 25.8 223.8 34.3 L 214 22.7 L 199.1 20 C 207.3 17.3 217.3 10.8 224.3 5 Z" id="path96" fill="#5DC1D0"/></g><g><line x1="5.9" y1="380" x2="51.7" y2="300.7" id="line94_1_" stroke="#5DC1D0" stroke-width="3" stroke-miterlimit="10" fill="none"/><path d=" M 60.8 285 C 59.3 294 58.7 305.8 60.3 314.3 L 50.5 302.7 L 35.7 300 C 43.8 297.3 53.8 290.8 60.8 285 Z" id="path96_1_" fill="#5DC1D0"/></g><line x1="340.1" y1="20.7" x2="385.9" y2="100" id="line98" stroke="#5DC1D0" stroke-width="3" stroke-miterlimit="10" fill="none"/><path d=" M 395 115.7 C 388 109.9 378 103.4 369.8 100.6 L 384.7 97.9 L 394.5 86.3 C 392.8 94.8 393.5 106.7 395 115.7 Z" id="path100" fill="#5DC1D0"/><g><line x1="482.1" y1="258.1" x2="526.1" y2="338.4" id="line102" stroke="#5DC1D0" stroke-width="3" stroke-miterlimit="10" fill="none"/><path d=" M 534.8 354.3 C 527.9 348.3 518.1 341.6 509.9 338.7 L 524.9 336.3 L 535 324.9 C 533.1 333.4 533.5 345.3 534.8 354.3 L 534.8 354.3 Z" id="path104" fill="#5DC1D0"/></g><g><text fill="#FFFFFF" font-family="Calibri" font-size="18" transform="matrix(1,0,0,1,209.181,159.173)">C</text><text fill="#FFFFFF" font-family="Calibri" font-size="18" transform="matrix(1,0,0,1,218.581,159.173)">ONFIDENTIALITY</text><g><path d=" M 274.5 125.6 C 283.8 125.6 291.7 119.5 294.3 111.1 L 302.9 111.1 C 300 124.2 288.4 133.9 274.5 133.9 C 260.6 133.9 249 124.1 246.1 111.1 L 254.7 111.1 C 257.3 119.5 265.2 125.6 274.5 125.6 L 274.5 125.6 Z" id="path1125" fill="#B4D380"/><path d=" M 274.5 84.1 C 265.2 84.1 257.3 90.2 254.7 98.6 L 246.1 98.6 C 249 85.5 260.6 75.8 274.5 75.8 C 288.4 75.8 300 85.6 302.9 98.6 L 294.3 98.6 C 291.6 90.2 283.8 84.1 274.5 84.1 Z" id="path1127" fill="#B4D380"/><path d=" M 305.6 100.7 L 305.6 109 C 305.6 110.1 304.7 111.1 303.5 111.1 L 284.4 111.1 C 284.7 109.9 284.8 108.8 284.8 107.5 L 284.8 103.8 C 284.8 103.8 284.1 103.2 282.7 102.6 L 282.7 98.6 L 303.5 98.6 C 304.7 98.6 305.6 99.5 305.6 100.7 Z" id="path1129" fill="#E6E9ED"/><path d=" M 264.1 103.8 L 264.1 107.5 C 264.1 108.7 264.3 109.9 264.5 111.1 L 245.4 111.1 C 244.3 111.1 243.3 110.2 243.3 109 L 243.3 100.7 C 243.3 99.6 244.2 98.6 245.4 98.6 L 266.2 98.6 L 266.2 102.6 C 264.8 103.2 264.1 103.8 264.1 103.8 Z" id="path1131" fill="#E6E9ED"/><path d=" M 282.8 98.6 L 282.8 102.6 C 281.8 102.1 280.3 101.5 278.6 101.2 L 278.6 96.6 C 278.6 94.3 276.7 92.4 274.4 92.4 C 272.1 92.4 270.2 94.3 270.2 96.6 L 270.2 101.2 C 268.5 101.6 267.1 102.1 266 102.6 L 266 96.5 C 266 94.2 266.9 92.1 268.4 90.6 C 269.9 89.1 272 88.2 274.3 88.2 C 278.9 88.2 282.6 91.9 282.6 96.5 L 282.6 98.6 L 282.8 98.6 Z" id="path1133" fill="#838F9A"/><path d=" M 284.9 103.8 L 284.9 107.5 C 284.9 108.7 284.7 109.9 284.5 111.1 C 283.3 116 279.6 120 274.6 121.5 C 269.6 120 265.9 116 264.7 111.1 C 264.4 109.9 264.3 108.8 264.3 107.5 L 264.3 103.8 C 264.3 103.8 265 103.2 266.4 102.6 C 267.4 102.1 268.9 101.5 270.6 101.2 C 271.8 100.9 273.2 100.7 274.8 100.7 C 276.4 100.7 277.7 100.9 279 101.2 C 280.7 101.6 282.1 102.1 283.2 102.6 C 284.1 103.2 284.9 103.8 284.9 103.8 L 284.9 103.8 Z" id="path1135" fill="#FDD870"/><path d=" M 274.5 103.8 C 276.8 103.8 278.7 105.7 278.7 108 C 278.7 109.5 277.9 110.9 276.6 111.6 L 276.6 116.3 L 272.4 116.3 L 272.4 111.6 C 271.2 110.9 270.3 109.6 270.3 108 C 270.3 105.6 272.2 103.8 274.5 103.8 L 274.5 103.8 Z" id="path1137" fill="#FDC72D"/><path d=" M 303.7 97.6 C 300.4 84.3 288.3 74.7 274.5 74.7 C 260.7 74.7 248.6 84.3 245.3 97.6 C 243.6 97.7 242.3 99 242.3 100.7 L 242.3 109 C 242.3 110.7 243.6 112 245.3 112.1 C 248.6 125.4 260.7 135 274.5 135 C 288.3 135 300.4 125.4 303.7 112.1 C 305.4 112 306.7 110.7 306.7 109 L 306.7 100.7 C 306.7 99 305.3 97.6 303.7 97.6 Z M 274.5 76.8 C 287.1 76.8 298.3 85.5 301.5 97.6 L 295 97.6 C 291.9 88.9 283.8 83.1 274.5 83.1 C 265.2 83.1 257 88.9 254 97.6 L 247.5 97.6 C 250.7 85.5 261.8 76.8 274.5 76.8 L 274.5 76.8 Z M 285.2 112.1 L 292.8 112.1 C 289.8 119.6 282.6 124.6 274.5 124.6 C 266.4 124.6 259.1 119.6 256.2 112.1 L 263.8 112.1 C 265.3 117 269.1 120.9 274.2 122.4 L 274.5 122.5 L 274.8 122.4 C 279.9 120.9 283.7 117 285.2 112.1 L 285.2 112.1 Z M 274.5 101.7 C 279.2 101.7 282.7 103.6 283.8 104.3 L 283.8 107.4 C 283.8 113.3 280.1 118.5 274.5 120.3 C 268.9 118.5 265.2 113.4 265.2 107.4 L 265.2 104.3 C 266.3 103.6 269.8 101.7 274.5 101.7 Z M 277.6 99.9 C 276.6 99.7 275.6 99.6 274.5 99.6 C 273.4 99.6 272.4 99.7 271.4 99.9 L 271.4 96.5 C 271.4 94.8 272.8 93.4 274.5 93.4 C 276.2 93.4 277.6 94.8 277.6 96.5 L 277.6 99.9 Z M 279.7 100.3 L 279.7 96.5 C 279.7 93.6 277.4 91.3 274.5 91.3 C 271.6 91.3 269.3 93.6 269.3 96.5 L 269.3 100.3 C 268.5 100.5 267.8 100.7 267.2 101 L 267.2 96.5 C 267.2 92.5 270.5 89.2 274.5 89.2 C 278.5 89.2 281.8 92.5 281.8 96.5 L 281.8 101 C 281.1 100.8 280.4 100.5 279.7 100.3 L 279.7 100.3 Z M 274.5 87.2 C 269.3 87.2 265.2 91.4 265.2 96.5 L 265.2 97.5 L 256.2 97.5 C 259.2 90 266.4 85 274.5 85 C 282.6 85 289.9 90 292.8 97.5 L 283.8 97.5 L 283.8 96.5 C 283.8 91.4 279.6 87.2 274.5 87.2 Z M 244.4 109 L 244.4 100.7 C 244.4 100.1 244.9 99.7 245.4 99.7 L 265.1 99.7 L 265.1 102 C 264.1 102.5 263.5 103 263.4 103 L 263 103.3 L 263 107.5 C 263 108.4 263.1 109.2 263.2 110 L 245.3 110 C 244.8 110 244.4 109.6 244.4 109 L 244.4 109 Z M 274.5 132.9 C 261.9 132.9 250.7 124.2 247.5 112.1 L 254 112.1 C 257.1 120.8 265.2 126.6 274.5 126.6 C 283.8 126.6 292 120.8 295 112.1 L 301.5 112.1 C 298.3 124.2 287.1 132.9 274.5 132.9 Z M 304.6 109 C 304.6 109.6 304.1 110 303.6 110 L 285.7 110 C 285.8 109.2 285.9 108.3 285.9 107.5 L 285.9 103.3 L 285.5 103 C 285.4 103 284.8 102.5 283.8 102 L 283.8 99.7 L 303.5 99.7 C 304.1 99.7 304.5 100.2 304.5 100.7 L 304.6 109 L 304.6 109 Z" id="path1139" fill="#FFFFFF"/><path d=" M 298.4 101.7 L 300.5 101.7 L 300.5 103.8 L 298.4 103.8 L 298.4 101.7 Z" id="path1141" fill="#020203"/><path d=" M 298.4 105.9 L 300.5 105.9 L 300.5 108 L 298.4 108 L 298.4 105.9 Z" id="path1143" fill="#020203"/><path d=" M 300.4 103.8 L 302.5 103.8 L 302.5 105.9 L 300.4 105.9 L 300.4 103.8 Z" id="path1145" fill="#020203"/><path d=" M 296.3 103.8 L 298.4 103.8 L 298.4 105.9 L 296.3 105.9 L 296.3 103.8 Z" id="path1147" fill="#020203"/><path d=" M 290.1 101.7 L 292.2 101.7 L 292.2 103.8 L 290.1 103.8 L 290.1 101.7 Z" id="path1149" fill="#020203"/><path d=" M 290.1 105.9 L 292.2 105.9 L 292.2 108 L 290.1 108 L 290.1 105.9 Z" id="path1151" fill="#020203"/><path d=" M 292.1 103.8 L 294.2 103.8 L 294.2 105.9 L 292.1 105.9 L 292.1 103.8 Z" id="path1153" fill="#020203"/><path d=" M 288 103.8 L 290.1 103.8 L 290.1 105.9 L 288 105.9 L 288 103.8 Z" id="path1155" fill="#020203"/><path d=" M 256.8 101.7 L 258.9 101.7 L 258.9 103.8 L 256.8 103.8 L 256.8 101.7 Z" id="path1157" fill="#020203"/><path d=" M 256.8 105.9 L 258.9 105.9 L 258.9 108 L 256.8 108 L 256.8 105.9 Z" id="path1159" fill="#020203"/><path d=" M 258.9 103.8 L 261 103.8 L 261 105.9 L 258.9 105.9 L 258.9 103.8 Z" id="path1161" fill="#020203"/><path d=" M 254.7 103.8 L 256.8 103.8 L 256.8 105.9 L 254.7 105.9 L 254.7 103.8 L 254.7 103.8 Z" id="path1163" fill="#020203"/><path d=" M 248.5 101.7 L 250.6 101.7 L 250.6 103.8 L 248.5 103.8 L 248.5 101.7 Z" id="path1165" fill="#020203"/><path d=" M 248.5 105.9 L 250.6 105.9 L 250.6 108 L 248.5 108 L 248.5 105.9 Z" id="path1167" fill="#020203"/><path d=" M 250.6 103.8 L 252.7 103.8 L 252.7 105.9 L 250.6 105.9 L 250.6 103.8 Z" id="path1169" fill="#020203"/><path d=" M 246.4 103.8 L 248.5 103.8 L 248.5 105.9 L 246.4 105.9 L 246.4 103.8 Z" id="path1171" fill="#020203"/><path d=" M 275.5 79.9 C 275.5 80.5 275 80.9 274.5 80.9 C 274 80.9 273.5 80.4 273.5 79.9 C 273.5 79.4 274 78.9 274.5 78.9 C 275.1 78.9 275.5 79.3 275.5 79.9 Z" id="path1173" fill="#020203"/><path d=" M 257.6 87.9 C 258 87.5 258 86.8 257.6 86.4 C 257.2 86 256.5 86 256.1 86.4 C 255.7 86.8 255.7 87.5 256.1 87.9 C 256.5 88.3 257.2 88.3 257.6 87.9 Z" id="path1175" fill="#020203"/><path d=" M 256.1 121.7 C 255.7 122.1 255.7 122.8 256.1 123.2 C 256.5 123.6 257.2 123.6 257.6 123.2 C 258 122.8 258 122.1 257.6 121.7 C 257.2 121.3 256.5 121.3 256.1 121.7 Z" id="path1177" fill="#020203"/><path d=" M 275.5 129.7 C 275.5 130.3 275 130.7 274.5 130.7 C 274 130.7 273.5 130.2 273.5 129.7 C 273.5 129.2 274 128.7 274.5 128.7 C 275.1 128.7 275.5 129.2 275.5 129.7 Z" id="path1179" fill="#020203"/><path d=" M 291.4 121.7 C 291 122.1 291 122.8 291.4 123.2 C 291.8 123.6 292.5 123.6 292.9 123.2 C 293.3 122.8 293.3 122.1 292.9 121.7 C 292.4 121.3 291.8 121.3 291.4 121.7 Z" id="path1181" fill="#020203"/><path d=" M 292.8 87.9 C 293.2 87.5 293.2 86.8 292.8 86.4 C 292.4 86 291.7 86 291.3 86.4 C 290.9 86.8 290.9 87.5 291.3 87.9 C 291.8 88.3 292.4 88.3 292.8 87.9 Z" id="path1183" fill="#020203"/><path d=" M 271.4 112.1 L 271.4 117.3 L 277.6 117.3 L 277.6 112.1 C 278.9 111.1 279.7 109.6 279.7 108 C 279.7 105.1 277.4 102.8 274.5 102.8 C 271.6 102.8 269.3 105.1 269.3 108 C 269.3 109.6 270.1 111.1 271.4 112.1 Z M 274.5 104.8 C 276.2 104.8 277.6 106.2 277.6 107.9 C 277.6 109 277 110 276 110.6 L 275.5 110.9 L 275.5 115.2 L 273.4 115.2 L 273.4 110.9 L 272.9 110.6 C 271.9 110 271.3 109 271.3 107.9 C 271.4 106.2 272.8 104.8 274.5 104.8 L 274.5 104.8 Z" id="path1185" fill="#020203"/></g></g><g><text fill="#FFFFFF" font-family="Calibri" font-size="18" transform="matrix(1,0,0,1,84.7654,423.658)">A</text><text fill="#FFFFFF" font-family="Calibri" font-size="18" transform="matrix(1,0,0,1,94.7454,423.658)">V</text><text fill="#FFFFFF" font-family="Calibri" font-size="18" transform="matrix(1,0,0,1,104.435,423.658)">AILABILITY</text><g id="XMLID_1031_" transform="matrix(0.13298,0,0,0.13298,151.955,291.01)"><g id="XMLID_971_"><g id="XMLID_977_"><path d=" M 59.4 400.3 L 75.2 400.3 C 80.7 400.3 85.2 395.8 85.2 390.3 C 85.2 384.8 80.7 380.3 75.2 380.3 L 37.2 380.3 C 31.7 380.3 27.2 384.8 27.2 390.3 L 27.2 428.3 C 27.2 433.8 31.7 438.3 37.2 438.3 C 42.7 438.3 47.2 433.8 47.2 428.3 L 47.2 417.3 C 77.5 457.9 94 507.2 94 558.5 C 94 688.7 -11.9 794.7 -142.1 794.7 C -272.3 794.7 -378.3 688.8 -378.3 558.5 C -378.3 428.2 -272.4 322.3 -142.1 322.3 C -132.5 322.3 -122.8 322.9 -113.3 324 C -107.8 324.7 -102.8 320.8 -102.2 315.3 C -101.5 309.8 -105.4 304.8 -110.9 304.2 C -121.2 303 -131.7 302.3 -142.1 302.3 C -210.5 302.3 -274.9 328.9 -323.2 377.3 C -371.6 425.7 -398.2 490 -398.2 558.4 C -398.2 626.8 -371.6 691.2 -323.2 739.5 C -274.8 787.9 -210.5 814.5 -142.1 814.5 C -73.7 814.5 -9.4 788 39 739.6 C 87.4 691.2 114 626.9 114 558.5 C 114 500.7 94.7 445.3 59.4 400.3 Z" id="XMLID_1030_" fill="#FFFFFF"/><path d=" M -289.8 453.3 C -294.5 450.3 -300.6 451.7 -303.6 456.4 C -326.4 492.5 -336.5 535.8 -332.1 578.5 C -327.6 621.8 -308.1 662.7 -277.2 693.5 C -240 730.7 -191.1 749.4 -142.1 749.4 C -93.1 749.4 -44.3 730.8 -7 693.5 C 67.5 619 67.5 497.9 -7 423.4 C -37.8 392.6 -78.6 373.1 -121.8 368.5 C -164.4 364 -207.7 374 -243.8 396.7 C -248.5 399.6 -249.9 405.8 -246.9 410.5 C -244 415.2 -237.8 416.6 -233.1 413.6 C -165.2 370.8 -78 380.6 -21.1 437.5 C 45.6 504.2 45.6 612.7 -21.1 679.3 C -87.8 746 -196.3 746 -262.9 679.3 C -319 623.2 -328.9 533.9 -286.6 467 C -283.8 462.5 -285.2 456.3 -289.8 453.3 Z" id="XMLID_1029_" fill="#FFFFFF"/><path d=" M -12.1 568.6 L 0.2 568.6 C 5.7 568.6 10.2 564.1 10.2 558.6 C 10.2 553.1 5.7 548.6 0.2 548.6 L -12.1 548.6 C -17.6 548.6 -22.1 553.1 -22.1 558.6 C -22.1 564.2 -17.7 568.6 -12.1 568.6 Z" id="XMLID_1028_" fill="#FFFFFF"/><path d=" M -294.5 558.3 C -294.5 563.8 -290 568.3 -284.5 568.3 L -272.2 568.3 C -266.7 568.3 -262.2 563.8 -262.2 558.3 C -262.2 552.8 -266.7 548.3 -272.2 548.3 L -284.5 548.3 C -290 548.3 -294.5 552.8 -294.5 558.3 Z" id="XMLID_1004_" fill="#FFFFFF"/><path d=" M -132 428.5 L -132 416.2 C -132 410.7 -136.5 406.2 -142 406.2 C -147.5 406.2 -152 410.7 -152 416.2 L -152 428.5 C -152 434 -147.5 438.5 -142 438.5 C -136.5 438.5 -132 434 -132 428.5 Z" id="XMLID_1001_" fill="#FFFFFF"/><path d=" M -152.3 688.5 L -152.3 700.8 C -152.3 706.3 -147.8 710.8 -142.3 710.8 C -136.8 710.8 -132.3 706.3 -132.3 700.8 L -132.3 688.5 C -132.3 683 -136.8 678.5 -142.3 678.5 C -147.8 678.5 -152.3 683 -152.3 688.5 Z" id="XMLID_1415_" fill="#FFFFFF"/><path d=" M -192.3 494.2 C -196.2 490.3 -202.5 490.3 -206.4 494.2 C -210.3 498.1 -210.3 504.4 -206.4 508.3 L -172.5 542.2 C -175.1 547 -176.6 552.6 -176.6 558.4 C -176.6 577.4 -161.1 592.8 -142.2 592.8 C -123.3 592.8 -107.8 577.3 -107.8 558.4 C -107.8 552.5 -109.3 547 -111.9 542.2 L -43.5 473.8 C -39.6 469.9 -39.6 463.6 -43.5 459.7 C -47.4 455.8 -53.7 455.8 -57.6 459.7 L -126 528.1 C -130.8 525.5 -136.4 524 -142.2 524 C -148 524 -153.6 525.5 -158.4 528.1 L -192.3 494.2 Z M -127.7 558.5 C -127.7 566.5 -134.2 573 -142.1 573 C -150.1 573 -156.5 566.5 -156.5 558.5 C -156.5 550.5 -150 544.1 -142.1 544.1 C -134.2 544 -127.7 550.5 -127.7 558.5 Z" id="XMLID_996_" fill="#FFFFFF"/><path d=" M -263.1 437.6 C -261.2 435.7 -260.2 433.2 -260.2 430.5 C -260.2 427.9 -261.3 425.3 -263.1 423.4 C -265 421.5 -267.5 420.5 -270.2 420.5 C -272.8 420.5 -275.4 421.6 -277.3 423.4 C -279.2 425.3 -280.2 427.8 -280.2 430.5 C -280.2 433.1 -279.1 435.7 -277.3 437.6 C -275.4 439.5 -272.9 440.5 -270.2 440.5 C -267.5 440.5 -264.9 439.4 -263.1 437.6 Z" id="XMLID_980_" fill="#FFFFFF"/><path d=" M -72.9 332.2 C -70.3 332.2 -67.7 331.1 -65.8 329.3 C -63.9 327.4 -62.9 324.9 -62.9 322.2 C -62.9 319.6 -64 317 -65.8 315.1 C -67.7 313.2 -70.2 312.2 -72.9 312.2 C -75.5 312.2 -78.1 313.3 -80 315.1 C -81.9 317 -82.9 319.5 -82.9 322.2 C -82.9 324.8 -81.8 327.4 -80 329.3 C -78.1 331.1 -75.5 332.2 -72.9 332.2 Z" id="XMLID_979_" fill="#FFFFFF"/></g></g></g></g><g><text fill="#FFFFFF" font-family="Calibri" font-size="18" transform="matrix(1,0,0,1,380.73,424.738)">INT</text><text fill="#FFFFFF" font-family="Calibri" font-size="18" transform="matrix(1,0,0,1,406.3,424.738)">E</text><text fill="#FFFFFF" font-family="Calibri" font-size="18" transform="matrix(1,0,0,1,414.81,424.738)">GRITY</text><g id="g7173" transform="matrix(0.12947,0,0,0.12947,441.831,288.461)"><path d=" M -72.5 666.1 L -90.9 647.7 C -87.8 642.2 -85.3 636.5 -83.4 630.6 L -56.4 630.6 C -52.3 630.6 -48.9 627.2 -48.9 623.1 L -48.9 579.7 C -48.9 575.6 -52.3 572.2 -56.4 572.2 L -83.4 572.2 C -85.3 566.3 -87.8 560.5 -90.9 555.1 L -72.5 536.7 C -69.6 533.8 -69.6 529 -72.5 526.1 L -100.6 498 C -102 496.6 -103.9 495.8 -105.9 495.8 C -107.9 495.8 -109.8 496.6 -111.2 498 L -130.3 517.1 C -134.8 514.8 -139.5 512.8 -144.4 511.3 L -144.4 484.3 C -144.4 480.2 -147.8 476.8 -151.9 476.8 L -191.8 476.8 C -195.9 476.8 -199.3 480.2 -199.3 484.3 L -199.3 510.3 C -205.3 512 -211.1 514.3 -216.7 517.1 L -235.8 498 C -237.2 496.6 -239.1 495.8 -241.1 495.8 C -243.1 495.8 -245 496.6 -246.4 498 L -274.6 526.2 C -277.5 529.1 -277.5 533.9 -274.6 536.8 L -256.2 555.2 C -259.3 560.7 -261.8 566.4 -263.7 572.3 L -290.7 572.3 C -294.8 572.3 -298.2 575.7 -298.2 579.8 L -298.2 623.2 C -298.2 627.3 -294.8 630.7 -290.7 630.7 L -263.7 630.7 C -261.8 636.6 -259.3 642.4 -256.2 647.8 L -274.6 666.2 C -277.5 669.1 -277.5 673.9 -274.6 676.8 L -246.4 705 C -243.5 707.9 -238.7 707.9 -235.8 705 L -216.7 685.9 C -211.1 688.8 -205.3 691 -199.3 692.7 L -199.3 718.7 C -199.3 722.8 -195.9 726.2 -191.8 726.2 L -151.9 726.2 C -147.8 726.2 -144.4 722.8 -144.4 718.7 L -144.4 691.7 C -139.6 690.1 -134.9 688.2 -130.3 685.9 L -111.2 705 C -108.3 707.9 -103.5 707.9 -100.6 705 L -72.4 676.8 C -69.5 673.8 -69.5 669.1 -72.5 666.1 Z M -105.9 689 L -123.7 671.2 C -126.1 668.8 -129.9 668.3 -132.8 670.1 C -139.3 674 -146.4 676.9 -153.7 678.8 C -157 679.6 -159.3 682.6 -159.3 686.1 L -159.3 711.2 L -184.2 711.2 L -184.2 686.9 C -184.2 683.4 -186.7 680.3 -190.1 679.6 C -198.5 677.8 -206.6 674.6 -214 670.2 C -216.9 668.4 -220.7 668.9 -223.1 671.3 L -240.9 689.1 L -258.5 671.5 L -241.3 654.3 C -238.8 651.8 -238.4 647.9 -240.3 644.9 C -245 637.6 -248.5 629.7 -250.6 621.3 C -251.4 618 -254.4 615.7 -257.9 615.7 L -283.1 615.7 L -283.1 587.3 L -258 587.3 C -254.6 587.3 -251.6 585 -250.7 581.7 C -248.6 573.3 -245.1 565.4 -240.4 558.1 C -238.5 555.1 -238.9 551.2 -241.4 548.7 L -258.6 531.5 L -241 513.9 L -223.2 531.7 C -220.8 534.1 -217 534.6 -214.1 532.8 C -206.7 528.4 -198.6 525.2 -190.2 523.4 C -186.7 522.7 -184.3 519.6 -184.3 516.1 L -184.3 491.8 L -159.4 491.8 L -159.4 516.9 C -159.4 520.3 -157.1 523.3 -153.8 524.2 C -146.5 526.1 -139.4 529 -132.9 532.9 C -130 534.7 -126.2 534.2 -123.8 531.8 L -106 514 L -88.4 531.6 L -105.6 548.8 C -108.1 551.3 -108.5 555.2 -106.6 558.2 C -101.9 565.5 -98.4 573.4 -96.3 581.8 C -95.5 585.1 -92.5 587.4 -89 587.4 L -63.9 587.4 L -63.9 615.8 L -89 615.8 C -92.4 615.8 -95.4 618.1 -96.3 621.4 C -98.4 629.8 -101.9 637.7 -106.6 645 C -108.5 648 -108.1 651.9 -105.6 654.4 L -88.4 671.6 L -105.9 689 Z" id="path7126" fill="#FFFFFF"/><path d=" M -173.5 563.7 C -175.4 563.7 -177.4 563.8 -179.2 564.1 C -183.3 564.7 -186.1 568.6 -185.5 572.6 C -184.9 576.7 -181 579.5 -177 578.9 C -175.9 578.7 -174.7 578.6 -173.5 578.6 C -160.9 578.6 -150.7 588.8 -150.7 601.4 C -150.7 614 -160.9 624.2 -173.5 624.2 C -186.1 624.2 -196.3 614 -196.3 601.4 C -196.3 600.2 -196.2 599 -196 597.9 C -195.4 593.8 -198.2 590 -202.3 589.3 C -206.4 588.7 -210.2 591.5 -210.9 595.6 C -211.2 597.5 -211.3 599.4 -211.3 601.4 C -211.3 622.2 -194.3 639.2 -173.5 639.2 C -152.7 639.2 -135.7 622.2 -135.7 601.4 C -135.7 580.6 -152.6 563.7 -173.5 563.7 Z" id="path7128" fill="#FFFFFF"/><path d=" M 14.4 390.9 C 1.9 390.9 -8.3 401.1 -8.3 413.6 C -8.3 426.1 1.9 436.3 14.4 436.3 C 26.9 436.3 37.1 426.1 37.1 413.6 C 37.1 401.1 26.9 390.9 14.4 390.9 Z M 14.4 421.2 C 10.2 421.2 6.7 417.8 6.7 413.5 C 6.7 409.3 10.1 405.8 14.4 405.8 C 18.7 405.8 22.1 409.2 22.1 413.5 C 22.1 417.8 18.6 421.2 14.4 421.2 Z" id="path7130" fill="#FFFFFF"/><path d=" M 75 390.9 L 62.3 390.9 C 57.1 379.8 48.2 370.9 37.1 365.7 L 37.1 353 C 37.1 348.9 33.7 345.5 29.6 345.5 L -0.7 345.5 C -4.8 345.5 -8.2 348.9 -8.2 353 L -8.2 365.7 C -19.3 370.9 -28.2 379.8 -33.4 390.9 L -46.1 390.9 C -50.2 390.9 -53.6 394.3 -53.6 398.4 L -53.6 428.7 C -53.6 432.8 -50.2 436.2 -46.1 436.2 L -33.4 436.2 C -28.2 447.3 -19.3 456.2 -8.2 461.4 L -8.2 474.1 C -8.2 478.2 -4.8 481.6 -0.7 481.6 L 29.6 481.6 C 33.7 481.6 37.1 478.2 37.1 474.1 L 37.1 461.4 C 48.2 456.2 57.1 447.3 62.3 436.2 L 75 436.2 C 79.1 436.2 82.5 432.8 82.5 428.7 L 82.5 398.4 C 82.5 394.3 79.2 390.9 75 390.9 Z M 67.5 421.2 L 57.3 421.2 C 54.1 421.2 51.3 423.2 50.2 426.2 C 46.4 436.9 37.8 445.5 27.1 449.3 C 24.1 450.4 22.1 453.2 22.1 456.4 L 22.1 466.7 L 6.8 466.7 L 6.8 456.4 C 6.8 453.2 4.8 450.4 1.8 449.3 C -8.9 445.5 -17.5 436.9 -21.3 426.2 C -22.4 423.2 -25.2 421.2 -28.4 421.2 L -38.7 421.2 L -38.7 405.9 L -28.4 405.9 C -25.2 405.9 -22.4 403.9 -21.3 400.9 C -17.5 390.2 -8.9 381.6 1.8 377.8 C 4.8 376.7 6.8 373.9 6.8 370.7 L 6.8 360.4 L 22.1 360.4 L 22.1 370.7 C 22.1 373.9 24.1 376.7 27.1 377.8 C 37.8 381.6 46.4 390.2 50.2 400.9 C 51.3 403.9 54.1 405.9 57.3 405.9 L 67.6 405.9 L 67.5 421.2 L 67.5 421.2 Z" id="path7132" fill="#FFFFFF"/><path d=" M 37.1 789.4 C 37.1 776.9 26.9 766.7 14.4 766.7 C 1.9 766.7 -8.3 776.9 -8.3 789.4 C -8.2 801.9 1.9 812 14.4 812 C 26.9 812 37.1 801.9 37.1 789.4 Z M 6.8 789.4 C 6.8 785.2 10.2 781.7 14.5 781.7 C 18.8 781.7 22.2 785.1 22.2 789.4 C 22.2 793.6 18.8 797.1 14.5 797.1 C 10.2 797.1 6.8 793.6 6.8 789.4 Z" id="path7134" fill="#FFFFFF"/><path d=" M 75 766.7 L 62.3 766.7 C 57.1 755.6 48.2 746.7 37.1 741.5 L 37.1 728.8 C 37.1 724.7 33.7 721.3 29.6 721.3 L -0.7 721.3 C -4.8 721.3 -8.2 724.7 -8.2 728.8 L -8.2 742.1 C -10.2 744.2 -10.9 747.3 -9.8 750.2 C -8.2 754 -3.8 755.8 1.77636e-15 754.3 C 0.6 754.1 1.2 753.8 1.8 753.6 C 4.8 752.5 6.8 749.7 6.8 746.5 L 6.8 736.2 L 22.1 736.2 L 22.1 746.5 C 22.1 749.7 24.1 752.5 27.1 753.6 C 37.8 757.4 46.4 766 50.2 776.7 C 51.3 779.7 54.1 781.7 57.3 781.7 L 67.6 781.7 L 67.6 797 L 57.3 797 C 54.1 797 51.3 799 50.2 802 C 46.4 812.7 37.8 821.3 27.1 825.1 C 24.1 826.2 22.1 829 22.1 832.2 L 22.1 842.5 L 6.8 842.5 L 6.8 832.2 C 6.8 829 4.8 826.2 1.8 825.1 C -8.9 821.3 -17.5 812.7 -21.3 802 C -22.4 799 -25.2 797 -28.4 797 L -38.7 797 L -38.7 781.7 L -28.4 781.7 C -25.2 781.7 -22.4 779.7 -21.3 776.7 C -21.1 776.1 -20.8 775.4 -20.6 774.8 C -19 771 -20.8 766.6 -24.7 765 C -27.6 763.8 -30.8 764.6 -32.9 766.7 L -46.2 766.7 C -50.3 766.7 -53.7 770.1 -53.7 774.2 L -53.7 804.5 C -53.7 808.6 -50.3 812 -46.2 812 L -33.5 812 C -28.3 823.1 -19.4 832 -8.3 837.2 L -8.3 850 C -8.3 854.1 -4.9 857.5 -0.8 857.5 L 29.5 857.5 C 33.6 857.5 37 854.1 37 850 L 37 837.3 C 48.1 832.1 57 823.2 62.2 812.1 L 74.9 812.1 C 79 812.1 82.4 808.7 82.4 804.6 L 82.4 774.3 C 82.5 770.1 79.2 766.7 75 766.7 Z" id="path7136" fill="#FFFFFF"/><path d=" M -338.7 413.6 C -338.7 401.1 -348.9 390.9 -361.4 390.9 C -373.9 390.9 -384.1 401.1 -384.1 413.6 C -384.1 426.1 -373.9 436.3 -361.4 436.3 C -348.9 436.2 -338.7 426.1 -338.7 413.6 Z M -369 413.6 C -369 409.4 -365.6 405.9 -361.3 405.9 C -357 405.9 -353.6 409.3 -353.6 413.6 C -353.6 417.9 -357 421.3 -361.3 421.3 C -365.6 421.3 -369 417.8 -369 413.6 Z" id="path7138" fill="#FFFFFF"/><path d=" M -422 436.2 L -409.3 436.2 C -404.1 447.3 -395.2 456.2 -384.1 461.4 L -384.1 474.1 C -384.1 478.2 -380.7 481.6 -376.6 481.6 L -346.3 481.6 C -342.2 481.6 -338.8 478.2 -338.8 474.1 L -338.8 461.4 C -327.7 456.2 -318.8 447.3 -313.6 436.2 L -300.9 436.2 C -296.8 436.2 -293.4 432.8 -293.4 428.7 L -293.4 398.4 C -293.4 394.3 -296.8 390.9 -300.9 390.9 L -313.6 390.9 C -318.8 379.8 -327.7 370.9 -338.8 365.7 L -338.8 353 C -338.8 348.9 -342.2 345.5 -346.3 345.5 L -376.6 345.5 C -380.7 345.5 -384.1 348.9 -384.1 353 L -384.1 366.3 C -386.1 368.4 -386.8 371.5 -385.7 374.4 C -384.1 378.2 -379.7 380 -375.9 378.5 C -375.3 378.3 -374.7 378 -374.1 377.8 C -371.1 376.7 -369.1 373.9 -369.1 370.7 L -369.1 360.4 L -353.8 360.4 L -353.8 370.7 C -353.8 373.9 -351.8 376.7 -348.8 377.8 C -338.1 381.6 -329.5 390.2 -325.7 400.9 C -324.6 403.9 -321.8 405.9 -318.6 405.9 L -308.3 405.9 L -308.3 421.2 L -318.6 421.2 C -321.8 421.2 -324.6 423.2 -325.7 426.2 C -329.5 436.9 -338.1 445.5 -348.8 449.3 C -351.8 450.4 -353.8 453.2 -353.8 456.4 L -353.8 466.7 L -369.1 466.7 L -369.1 456.4 C -369.1 453.2 -371.1 450.4 -374.1 449.3 C -384.8 445.5 -393.4 436.9 -397.2 426.2 C -398.3 423.2 -401.1 421.2 -404.3 421.2 L -414.6 421.2 L -414.6 405.9 L -404.3 405.9 C -401.1 405.9 -398.3 403.9 -397.2 400.9 C -397 400.3 -396.7 399.7 -396.5 399 C -394.9 395.2 -396.7 390.8 -400.5 389.2 C -403.4 388 -406.6 388.7 -408.7 390.9 L -422 390.9 C -426.1 390.9 -429.5 394.3 -429.5 398.4 L -429.5 428.7 C -429.5 432.9 -426.1 436.2 -422 436.2 Z" id="path7140" fill="#FFFFFF"/><path d=" M -300.8 766.7 L -313.5 766.7 C -318.7 755.6 -327.6 746.7 -338.7 741.5 L -338.7 728.8 C -338.7 724.7 -342.1 721.3 -346.2 721.3 L -376.5 721.3 C -380.6 721.3 -384 724.7 -384 728.8 L -384 741.5 C -395.1 746.7 -404 755.6 -409.2 766.7 L -421.9 766.7 C -426 766.7 -429.4 770.1 -429.4 774.2 L -429.4 804.5 C -429.4 808.6 -426 812 -421.9 812 L -409.2 812 C -404 823.1 -395.1 832 -384 837.2 L -384 850 C -384 854.1 -380.6 857.5 -376.5 857.5 L -346.2 857.5 C -342.1 857.5 -338.7 854.1 -338.7 850 L -338.7 837.3 C -327.6 832.1 -318.7 823.2 -313.5 812.1 L -300.8 812.1 C -296.7 812.1 -293.3 808.7 -293.3 804.6 L -293.3 774.3 C -293.3 770.1 -296.6 766.7 -300.8 766.7 Z M -308.3 797 L -318.6 797 C -321.8 797 -324.6 799 -325.7 802 C -329.5 812.7 -338.1 821.3 -348.8 825.1 C -351.8 826.2 -353.8 829 -353.8 832.2 L -353.8 842.5 L -369.1 842.5 L -369.1 832.2 C -369.1 829 -371.1 826.2 -374.1 825.1 C -384.8 821.3 -393.4 812.7 -397.2 802 C -398.3 799 -401.1 797 -404.3 797 L -414.6 797 L -414.6 781.7 L -404.3 781.7 C -401.1 781.7 -398.3 779.7 -397.2 776.7 C -393.4 766 -384.8 757.4 -374.1 753.6 C -371.1 752.5 -369.1 749.7 -369.1 746.5 L -369.1 736.2 L -353.8 736.2 L -353.8 746.5 C -353.8 749.7 -351.8 752.5 -348.8 753.6 C -338.1 757.4 -329.5 766 -325.7 776.7 C -324.6 779.7 -321.8 781.7 -318.6 781.7 L -308.3 781.7 L -308.3 797 Z" id="path7142" fill="#FFFFFF"/><path d=" M -361.4 766.7 C -373.9 766.7 -384.1 776.9 -384.1 789.4 C -384.1 801.9 -373.9 812.1 -361.4 812.1 C -348.9 812.1 -338.7 801.9 -338.7 789.4 C -338.7 776.9 -348.9 766.7 -361.4 766.7 Z M -361.4 797 C -365.6 797 -369.1 793.6 -369.1 789.3 C -369.1 785.1 -365.7 781.6 -361.4 781.6 C -357.1 781.6 -353.7 785 -353.7 789.3 C -353.7 793.6 -357.1 797 -361.4 797 Z" id="path7144" fill="#FFFFFF"/><path d=" M -305.5 458.8 C -308.4 455.9 -313.2 455.9 -316.1 458.8 C -319 461.7 -319 466.5 -316.1 469.4 L -294.6 490.9 L -300.7 490.9 C -304.8 490.9 -308.2 494.3 -308.2 498.4 C -308.2 502.5 -304.8 505.9 -300.7 505.9 L -276.5 505.9 C -272.4 505.9 -269 502.5 -269 498.4 L -269 474.2 C -269 470.1 -272.4 466.7 -276.5 466.7 C -280.6 466.7 -284 470.1 -284 474.2 L -284 480.3 L -305.5 458.8 Z" id="path7146" fill="#FFFFFF"/><path d=" M -77.9 499.2 C -77.5 503 -74.2 506 -70.4 506 L -46.2 506 C -42.1 506 -38.7 502.6 -38.7 498.5 C -38.7 494.4 -42.1 491 -46.2 491 L -52.3 491 L -30.8 469.5 C -27.9 466.6 -27.9 461.8 -30.8 458.9 C -33.7 456 -38.5 456 -41.4 458.9 L -62.9 480.4 L -62.9 474.3 C -62.9 470.2 -66.3 466.8 -70.4 466.8 C -74.5 466.8 -77.9 470.2 -77.9 474.3 L -77.9 498.5 C -77.9 498.7 -77.9 498.9 -77.9 499.2 Z" id="path7148" fill="#FFFFFF"/><path d=" M -269 701.8 C -269.4 698 -272.7 695 -276.5 695 L -300.7 695 C -304.8 695 -308.2 698.4 -308.2 702.5 C -308.2 706.6 -304.8 710 -300.7 710 L -294.6 710 L -316.1 731.5 C -319 734.4 -319 739.2 -316.1 742.1 C -314.6 743.6 -312.7 744.3 -310.8 744.3 C -308.9 744.3 -307 743.6 -305.5 742.1 L -284 720.6 L -284 726.7 C -284 730.8 -280.6 734.2 -276.5 734.2 C -272.4 734.2 -269 730.8 -269 726.7 L -269 702.5 C -269 702.3 -269 702 -269 701.8 Z" id="path7150" fill="#FFFFFF"/><path d=" M -41.4 742.2 C -39.9 743.7 -38 744.4 -36.1 744.4 C -34.2 744.4 -32.3 743.7 -30.8 742.2 C -27.9 739.3 -27.9 734.5 -30.8 731.6 L -52.3 710 L -46.2 710 C -42.1 710 -38.7 706.6 -38.7 702.5 C -38.7 698.4 -42.1 695 -46.2 695 L -70.4 695 C -74.5 695 -77.9 698.4 -77.9 702.5 L -77.9 726.7 C -77.9 730.8 -74.5 734.2 -70.4 734.2 C -66.3 734.2 -62.9 730.8 -62.9 726.7 L -62.9 720.6 L -41.4 742.2 Z" id="path7152" fill="#FFFFFF"/></g></g><g><path d=" M 257.6 271.4 C 257.6 271.6 257.6 271.8 257.6 272 C 257.6 272.2 257.6 272.3 257.5 272.4 C 257.4 272.5 257.4 272.6 257.4 272.7 C 257.4 272.8 257.3 272.9 257.2 273 C 257.1 273.1 256.9 273.2 256.6 273.4 C 256.3 273.6 255.9 273.7 255.5 273.9 C 255.1 274.1 254.6 274.2 254 274.3 C 253.4 274.4 252.9 274.5 252.2 274.5 C 250.9 274.5 249.8 274.3 248.8 273.9 C 247.8 273.5 246.9 272.9 246.2 272.2 C 245.5 271.5 244.9 270.5 244.6 269.3 C 244.2 268.1 244 266.8 244 265.3 C 244 263.7 244.2 262.4 244.6 261.2 C 245 260 245.6 259 246.3 258.2 C 247 257.4 247.9 256.8 249 256.3 C 250 255.9 251.2 255.7 252.4 255.7 C 252.9 255.7 253.4 255.7 253.9 255.8 C 254.4 255.9 254.8 256 255.2 256.1 C 255.6 256.2 256 256.4 256.3 256.6 C 256.6 256.8 256.8 256.9 257 257.1 C 257.1 257.2 257.2 257.3 257.3 257.4 C 257.3 257.5 257.4 257.6 257.4 257.7 C 257.4 257.8 257.4 258 257.5 258.2 C 257.5 258.4 257.5 258.6 257.5 258.9 C 257.5 259.2 257.5 259.4 257.5 259.6 C 257.5 259.8 257.4 260 257.4 260.1 C 257.4 260.2 257.3 260.3 257.2 260.4 C 257.1 260.5 257.1 260.5 257 260.5 C 256.9 260.5 256.7 260.4 256.5 260.3 C 256.3 260.1 256 260 255.7 259.7 C 255.4 259.5 254.9 259.3 254.5 259.1 C 254 258.9 253.5 258.9 252.8 258.9 C 252.1 258.9 251.4 259 250.9 259.3 C 250.3 259.6 249.8 260 249.4 260.6 C 249 261.2 248.7 261.8 248.5 262.6 C 248.3 263.4 248.2 264.3 248.2 265.2 C 248.2 266.3 248.3 267.2 248.5 268 C 248.7 268.8 249 269.4 249.4 269.9 C 249.8 270.4 250.3 270.8 250.9 271 C 251.5 271.2 252.1 271.4 252.9 271.4 C 253.6 271.4 254.1 271.3 254.6 271.2 C 255.1 271 255.5 270.9 255.8 270.7 C 256.1 270.5 256.4 270.3 256.6 270.2 C 256.8 270 257 270 257.1 270 C 257.2 270 257.3 270 257.3 270.1 C 257.4 270.1 257.4 270.2 257.4 270.3 C 257.4 270.4 257.5 270.6 257.5 270.8 C 257.5 270.8 257.6 271.1 257.6 271.4 Z" fill="#FFFFFF"/><path d=" M 264.2 272.2 C 264.2 273.1 264 273.7 263.7 274 C 263.4 274.3 262.8 274.5 262.1 274.5 C 261.4 274.5 260.8 274.4 260.5 274.1 C 260.2 273.8 260 273.2 260 272.4 C 260 271.5 260.2 270.9 260.5 270.6 C 260.8 270.3 261.4 270.1 262.2 270.1 C 263 270.1 263.5 270.2 263.8 270.5 C 264.1 270.8 264.2 271.3 264.2 272.2 Z" fill="#FFFFFF"/><path d=" M 271.7 273.7 C 271.7 273.8 271.7 273.9 271.6 274 C 271.5 274.1 271.4 274.1 271.3 274.2 C 271.2 274.2 271 274.3 270.7 274.3 C 270.5 274.3 270.2 274.3 269.8 274.3 C 269.4 274.3 269.1 274.3 268.9 274.3 C 268.7 274.3 268.5 274.2 268.3 274.2 C 268.2 274.2 268.1 274.1 268 274 C 267.9 273.9 267.9 273.8 267.9 273.7 L 267.9 256.4 C 267.9 256.3 267.9 256.2 268 256.1 C 268.1 256 268.2 256 268.3 255.9 C 268.4 255.9 268.6 255.8 268.9 255.8 C 269.1 255.8 269.4 255.8 269.8 255.8 C 270.2 255.8 270.5 255.8 270.7 255.8 C 270.9 255.8 271.1 255.9 271.3 255.9 C 271.4 255.9 271.5 256 271.6 256.1 C 271.7 256.2 271.7 256.3 271.7 256.4 L 271.7 273.7 Z" fill="#FFFFFF"/><path d=" M 279.7 272.2 C 279.7 273.1 279.5 273.7 279.2 274 C 278.9 274.3 278.3 274.5 277.5 274.5 C 276.7 274.5 276.2 274.4 275.9 274.1 C 275.6 273.8 275.4 273.2 275.4 272.4 C 275.4 271.5 275.6 270.9 275.9 270.6 C 276.2 270.3 276.8 270.1 277.6 270.1 C 278.4 270.1 278.9 270.2 279.2 270.5 C 279.5 270.8 279.7 271.3 279.7 272.2 Z" fill="#FFFFFF"/><path d=" M 298.7 272.8 C 298.8 273.1 298.9 273.4 298.9 273.6 C 298.9 273.8 298.9 273.9 298.8 274 C 298.7 274.1 298.5 274.2 298.2 274.2 C 297.9 274.2 297.6 274.2 297.1 274.2 C 296.6 274.2 296.2 274.2 296 274.2 C 295.7 274.2 295.5 274.2 295.4 274.1 C 295.3 274.1 295.2 274 295.1 273.9 C 295 273.8 295 273.7 295 273.6 L 293.8 269.9 L 286.9 269.9 L 285.7 273.5 C 285.7 273.6 285.6 273.7 285.6 273.8 C 285.6 273.9 285.4 274 285.3 274 C 285.2 274.1 285 274.1 284.7 274.1 C 284.4 274.1 284.1 274.1 283.7 274.1 C 283.3 274.1 282.9 274.1 282.7 274.1 C 282.5 274.1 282.3 274 282.2 273.9 C 282.1 273.8 282.1 273.6 282.1 273.4 C 282.1 273.2 282.2 272.9 282.3 272.6 L 288 256.3 C 288.1 256.1 288.1 256 288.2 255.9 C 288.3 255.8 288.4 255.7 288.6 255.7 C 288.8 255.6 289 255.6 289.3 255.6 C 289.6 255.6 290 255.6 290.5 255.6 C 291.1 255.6 291.5 255.6 291.8 255.6 C 292.1 255.6 292.4 255.6 292.6 255.7 C 292.8 255.8 292.9 255.8 293 255.9 C 293.1 256 293.1 256.1 293.2 256.3 L 298.7 272.8 Z M 290.3 259.4 L 290.3 259.4 L 287.7 267.2 L 292.9 267.2 L 290.3 259.4 Z" fill="#FFFFFF"/><path d=" M 305.4 272.2 C 305.4 273.1 305.2 273.7 304.9 274 C 304.6 274.3 304 274.5 303.2 274.5 C 302.4 274.5 301.9 274.4 301.6 274.1 C 301.3 273.8 301.1 273.2 301.1 272.4 C 301.1 271.5 301.3 270.9 301.6 270.6 C 301.9 270.3 302.5 270.1 303.3 270.1 C 304.1 270.1 304.6 270.2 304.9 270.5 C 305.3 270.8 305.4 271.3 305.4 272.2 Z" fill="#FFFFFF"/><path d=" M 252.1 283.4 C 252.1 283.7 252.1 283.9 252.1 284.1 C 252.1 284.3 252 284.4 252 284.6 C 252 284.7 251.9 284.8 251.8 284.9 C 251.7 285 251.7 285 251.6 285 L 247 285 L 247 299.8 C 247 299.9 247 300 246.9 300.1 C 246.8 300.2 246.7 300.2 246.6 300.3 C 246.5 300.3 246.3 300.4 246 300.4 C 245.8 300.4 245.5 300.4 245.1 300.4 C 244.7 300.4 244.4 300.4 244.2 300.4 C 244 300.4 243.8 300.3 243.6 300.3 C 243.5 300.3 243.4 300.2 243.3 300.1 C 243.2 300 243.2 299.9 243.2 299.8 L 243.2 285 L 238.6 285 C 238.5 285 238.4 285 238.4 284.9 C 238.3 284.8 238.3 284.8 238.2 284.6 C 238.2 284.5 238.1 284.3 238.1 284.1 C 238.1 283.9 238.1 283.7 238.1 283.4 C 238.1 283.1 238.1 282.9 238.1 282.7 C 238.1 282.5 238.2 282.3 238.2 282.2 C 238.2 282.1 238.3 282 238.4 281.9 C 238.5 281.8 238.5 281.8 238.6 281.8 L 251.5 281.8 C 251.6 281.8 251.7 281.8 251.7 281.9 C 251.8 282 251.8 282 251.9 282.2 C 251.9 282.3 252 282.5 252 282.7 C 252.1 282.9 252.1 283.1 252.1 283.4 Z" fill="#FFFFFF"/><path d=" M 267.9 299.7 C 267.9 299.8 267.9 299.9 267.8 300 C 267.8 300.1 267.7 300.1 267.5 300.2 C 267.4 300.2 267.2 300.3 266.9 300.3 C 266.6 300.3 266.3 300.3 265.8 300.3 C 265.4 300.3 265.1 300.3 264.9 300.3 C 264.7 300.3 264.5 300.2 264.3 300.2 C 264.2 300.1 264.1 300.1 264 300 C 263.9 299.9 263.9 299.8 263.9 299.7 L 262.3 295.6 C 262.1 295.1 261.9 294.7 261.7 294.4 C 261.5 294 261.3 293.7 261.1 293.5 C 260.9 293.3 260.6 293.1 260.3 293 C 260 292.9 259.6 292.8 259.3 292.8 L 258.1 292.8 L 258.1 299.8 C 258.1 299.9 258.1 300 258 300.1 C 257.9 300.2 257.8 300.2 257.7 300.3 C 257.6 300.3 257.4 300.4 257.1 300.4 C 256.9 300.4 256.6 300.4 256.2 300.4 C 255.8 300.4 255.5 300.4 255.3 300.4 C 255.1 300.4 254.9 300.3 254.7 300.3 C 254.6 300.3 254.5 300.2 254.4 300.1 C 254.3 300 254.3 299.9 254.3 299.8 L 254.3 283.2 C 254.3 282.8 254.4 282.5 254.6 282.3 C 254.8 282.1 255.1 282 255.4 282 L 260.1 282 C 260.6 282 261 282 261.3 282 C 261.6 282 261.9 282 262.1 282.1 C 262.8 282.2 263.5 282.4 264.1 282.6 C 264.7 282.9 265.2 283.2 265.6 283.6 C 266 284 266.3 284.5 266.5 285.1 C 266.7 285.7 266.8 286.3 266.8 287 C 266.8 287.6 266.7 288.2 266.6 288.7 C 266.4 289.2 266.2 289.7 265.9 290.1 C 265.6 290.5 265.2 290.8 264.8 291.1 C 264.4 291.4 263.9 291.6 263.3 291.8 C 263.6 291.9 263.8 292.1 264.1 292.3 C 264.3 292.5 264.6 292.7 264.8 293 C 265 293.3 265.2 293.6 265.4 293.9 C 265.6 294.2 265.8 294.6 266 295.1 L 267.5 298.7 C 267.6 299.1 267.7 299.3 267.8 299.5 C 267.8 299.5 267.9 299.6 267.9 299.7 Z M 263.1 287.3 C 263.1 286.7 263 286.2 262.7 285.8 C 262.4 285.4 262 285.1 261.4 284.9 C 261.2 284.9 261 284.8 260.8 284.8 C 260.6 284.8 260.2 284.8 259.8 284.8 L 258.1 284.8 L 258.1 290 L 260 290 C 260.5 290 261 289.9 261.4 289.8 C 261.8 289.7 262.1 289.5 262.4 289.3 C 262.7 289.1 262.9 288.8 263 288.5 C 263 288.1 263.1 287.7 263.1 287.3 Z" fill="#FFFFFF"/><path d=" M 274.3 299.7 C 274.3 299.8 274.3 299.9 274.2 300 C 274.1 300.1 274 300.1 273.9 300.2 C 273.8 300.2 273.6 300.3 273.3 300.3 C 273.1 300.3 272.8 300.3 272.4 300.3 C 272 300.3 271.7 300.3 271.5 300.3 C 271.3 300.3 271.1 300.2 270.9 300.2 C 270.8 300.2 270.7 300.1 270.6 300 C 270.5 299.9 270.5 299.8 270.5 299.7 L 270.5 282.4 C 270.5 282.3 270.5 282.2 270.6 282.1 C 270.7 282 270.8 282 270.9 281.9 C 271 281.9 271.2 281.8 271.5 281.8 C 271.7 281.8 272 281.8 272.4 281.8 C 272.8 281.8 273.1 281.8 273.3 281.8 C 273.5 281.8 273.7 281.9 273.9 281.9 C 274 281.9 274.1 282 274.2 282.1 C 274.3 282.2 274.3 282.3 274.3 282.4 L 274.3 299.7 Z" fill="#FFFFFF"/><path d=" M 293.3 298.8 C 293.4 299.1 293.5 299.4 293.5 299.6 C 293.5 299.8 293.5 299.9 293.4 300 C 293.3 300.1 293.1 300.2 292.8 300.2 C 292.5 300.2 292.2 300.2 291.7 300.2 C 291.2 300.2 290.8 300.2 290.6 300.2 C 290.3 300.2 290.1 300.2 290 300.1 C 289.9 300.1 289.8 300 289.7 299.9 C 289.6 299.8 289.6 299.7 289.6 299.6 L 288.4 295.9 L 281.5 295.9 L 280.3 299.5 C 280.3 299.6 280.2 299.7 280.2 299.8 C 280.2 299.9 280 300 279.9 300 C 279.8 300.1 279.6 300.1 279.3 300.1 C 279 300.1 278.7 300.1 278.3 300.1 C 277.9 300.1 277.5 300.1 277.3 300.1 C 277.1 300.1 276.9 300 276.8 299.9 C 276.7 299.8 276.7 299.6 276.7 299.4 C 276.7 299.2 276.8 298.9 276.9 298.6 L 282.6 282.3 C 282.7 282.1 282.7 282 282.8 281.9 C 282.9 281.8 283 281.7 283.2 281.7 C 283.4 281.6 283.6 281.6 283.9 281.6 C 284.2 281.6 284.6 281.6 285.1 281.6 C 285.7 281.6 286.1 281.6 286.4 281.6 C 286.7 281.6 287 281.6 287.2 281.7 C 287.4 281.8 287.5 281.8 287.6 281.9 C 287.7 282 287.7 282.1 287.8 282.3 L 293.3 298.8 Z M 284.9 285.4 L 284.9 285.4 L 282.3 293.2 L 287.5 293.2 L 284.9 285.4 Z" fill="#FFFFFF"/><path d=" M 311.1 290.8 C 311.1 292.5 310.9 293.9 310.4 295.1 C 310 296.3 309.3 297.3 308.5 298 C 307.7 298.8 306.7 299.3 305.5 299.7 C 304.3 300.1 302.9 300.2 301.3 300.2 L 296.9 300.2 C 296.6 300.2 296.3 300.1 296.1 299.9 C 295.9 299.7 295.8 299.4 295.8 299 L 295.8 283 C 295.8 282.6 295.9 282.3 296.1 282.1 C 296.3 281.9 296.6 281.8 296.9 281.8 L 301.6 281.8 C 303.2 281.8 304.6 282 305.8 282.4 C 306.9 282.8 307.9 283.3 308.7 284.1 C 309.5 284.9 310.1 285.8 310.5 286.9 C 310.9 288.1 311.1 289.3 311.1 290.8 Z M 307.3 290.9 C 307.3 290 307.2 289.2 307 288.5 C 306.8 287.8 306.5 287.1 306 286.6 C 305.6 286.1 305 285.6 304.3 285.3 C 303.6 285 302.7 284.8 301.5 284.8 L 299.6 284.8 L 299.6 297.3 L 301.5 297.3 C 302.5 297.3 303.4 297.2 304.1 296.9 C 304.8 296.6 305.4 296.2 305.8 295.7 C 306.3 295.2 306.6 294.5 306.8 293.7 C 307 292.9 307.3 292 307.3 290.9 Z" fill="#FFFFFF"/></g></svg>